# xmcd
# Copyright (C) 1995-1998 Ti Kan
#
# Track frame offsets:
#       150
#       16562
#       33913
#       60325
#
# Disc length: 1118 seconds
#
# Revision: 0
# Processed by: cddbd v1.5.2PL0 Copyright (c) Steve Scherf et al.
# Submitted via: CD-Transfer v1.0
#
DISCID=1d045c04
DTITLE=Fertig, Los! - Sie Ist In Mich Verliebt
DYEAR=07
DGENRE=
TTITLE0=Sie Ist In Mich Verliebt
TTITLE1=Über Uns Scheint Die Sonne
TTITLE2=Dreh Mich Nicht Um
TTITLE3=Data Track
EXTD=
EXTT0=
EXTT1=
EXTT2=
EXTT3=
PLAYORDER=
